<svg width="166" height="166" viewBox="0 0 166 166" fill="none" xmlns="http://www.w3.org/2000/svg">
<circle cx="83" cy="83" r="82.5" stroke="#E96301"/>
<path fill-rule="evenodd" clip-rule="evenodd" d="M114.82 60.0366C115.757 60.9743 116.284 62.2458 116.284 63.5716C116.284 64.8975 115.757 66.169 114.82 67.1066L77.3433 104.583C76.8481 105.079 76.2601 105.472 75.6129 105.74C74.9658 106.008 74.2722 106.146 73.5717 106.146C72.8712 106.146 72.1776 106.008 71.5304 105.74C70.8833 105.472 70.2953 105.079 69.8 104.583L51.18 85.9666C50.7025 85.5054 50.3215 84.9537 50.0595 84.3437C49.7975 83.7336 49.6595 83.0775 49.6538 82.4136C49.648 81.7498 49.7745 81.0914 50.0259 80.4769C50.2773 79.8624 50.6486 79.3041 51.118 78.8347C51.5875 78.3652 52.1458 77.9939 52.7602 77.7425C53.3747 77.4911 54.0331 77.3646 54.697 77.3704C55.3609 77.3762 56.017 77.5141 56.627 77.7761C57.237 78.0382 57.7888 78.4191 58.25 78.8966L73.57 94.2166L107.747 60.0366C108.211 59.572 108.762 59.2034 109.369 58.952C109.976 58.7005 110.626 58.571 111.283 58.571C111.94 58.571 112.591 58.7005 113.197 58.952C113.804 59.2034 114.356 59.572 114.82 60.0366Z" fill="#E96301"/>
</svg>
